<svg aria-hidden="true" style="position: absolute; width: 0; height: 0; overflow: hidden;" version="1.1" xmlns="http://www.w3.org/2000/svg" xmlns:xlink="http://www.w3.org/1999/xlink">
<defs>
<symbol id="icon-place" viewBox="0 0 32 32">
<path fill="#fff" style="fill: var(--color1, #fff)" d="M32 16c0 8.837-7.163 16-16 16s-16-7.163-16-16c0-8.837 7.163-16 16-16s16 7.163 16 16z"></path>
<path fill="#337d5a" style="fill: var(--color2, #337d5a)" d="M20.367 8.992c-1.166-1.166-2.717-1.809-4.367-1.809s-3.2 0.642-4.367 1.809c-2.158 2.158-2.427 6.219-0.581 8.679l4.947 7.145 4.94-7.135c1.853-2.47 1.585-6.531-0.574-8.689zM16.057 15.556c-1.243 0-2.254-1.011-2.254-2.254s1.011-2.254 2.254-2.254 2.254 1.011 2.254 2.254c0 1.243-1.011 2.254-2.254 2.254z"></path>
</symbol>
<symbol id="icon-tree" viewBox="0 0 32 32">
<path fill="#337d5a" style="fill: var(--color2, #337d5a)" d="M27.665 9.792c-0.651-0.502-1.12-1.29-1.038-2.063 0.29-2.727-1.279-5.056-3.816-5.481-0.45-0.076-0.899-0.282-1.305-0.513-0.765-0.437-1.563-0.598-2.387-0.353-0.445 0.132-0.719 0.073-1.073-0.268-2.019-1.947-5.183-1.251-6.172 1.392-0.284 0.759-0.704 1.202-1.362 1.491-0.147 0.065-0.308 0.137-0.413 0.256-0.329 0.375-0.642 0.282-1.040 0.102-2.57-1.166-5.338 0.753-5.446 3.72-0.015 0.424-0.18 0.884-0.394 1.249-0.764 1.309-0.899 2.623-0.386 3.984-0.369 0.983-0.047 2.208 0.863 2.919 0.998 0.78 2.149 0.373 3.032-0.382 0.25-0.025 0.504-0.079 0.763-0.164 0.519-0.169 0.987-0.372 1.424-0.146 0.069 0.055 0.14 0.104 0.213 0.148 0.019 0.017 0.039 0.033 0.058 0.052 0.003-0.004 0.005-0.008 0.007-0.012 0.144 0.083 0.293 0.145 0.446 0.193 0.848 3.194 2.672 5.991 5.176 7.973-0.153 1.954-0.641 3.869-1.55 5.745-1.015 0.661-2.254 0.183-3.317-0.131-0.94-0.277-1.855-0.379-2.793-0.060-0.194 0.066-0.285 0.23-0.294 0.399-0.001 0.005-0.003 0.009-0.004 0.013-0.071 0.326-0.142 0.651-0.213 0.977-0.066 0.305 0.14 0.513 0.363 0.554 0.035 0.009 0.072 0.016 0.113 0.016h17.365c0.152 0 0.261-0.071 0.328-0.172 0.1-0.083 0.166-0.211 0.166-0.354v-0.677c0-0.2-0.129-0.372-0.301-0.429-0.066-0.059-0.153-0.097-0.264-0.097h-5.247c-0.261-0.321-0.526-0.645-0.8-0.965-0.762-0.892-1.099-1.884-0.756-3.085 0.119-0.417 0.205-0.851 0.254-1.284 0.146-1.283 0.283-2.571 0.422-3.879 1.761-0.179 3.354-0.979 4.59-2.335 0.513-0.001 0.973-0.163 1.357-0.438l0.154-0.051c0.837 0.719 2.127 0.793 3.102 0.41 0.903-0.355 1.685-1.318 1.712-2.376 0.003-0.099-0.002-0.197-0.010-0.294 0.703-1.929 0.060-4.363-1.526-5.586zM12.348 15.604c0.010-0.004 0.018-0.007 0.028-0.011 0.182-0.074 0.499 0.011 0.663 0.146 0.231 0.191 0.449 0.4 0.663 0.612 0.004 0.018 0.004 0.035 0.010 0.053 0.326 1.16 0.652 2.32 0.978 3.481 0.078 0.585 0.127 1.165 0.154 1.743-1.686-1.477-2.609-3.67-2.495-6.024zM18.674 18.957c0.076-0.195 0.153-0.389 0.232-0.582 0.026 0 0.053 0 0.080-0 0-0.067 0.001-0.134 0.004-0.202 0.217-0.519 0.455-1.027 0.722-1.513 0.34 0.319 0.694 0.606 1.071 0.84-0.632 0.595-1.339 1.083-2.108 1.457z"></path>
</symbol>
<symbol id="icon-adress" viewBox="0 0 32 32">
<path fill="#337d5a" style="fill: var(--color2, #337d5a)" d="M31.599 15.625c0.58-0.638 0.524-1.616-0.125-2.183l-14.301-12.514c-0.649-0.568-1.69-0.556-2.325 0.027l-14.35 13.154c-0.635 0.583-0.667 1.559-0.069 2.18l0.36 0.375c0.597 0.621 1.562 0.695 2.154 0.165l1.072-0.96v14.060c0 0.863 0.699 1.561 1.561 1.561h5.594c0.862 0 1.561-0.698 1.561-1.561v-9.837h7.135v9.837c-0.012 0.862 0.604 1.56 1.466 1.56h5.928c0.862 0 1.561-0.698 1.561-1.561v-13.862c0 0 0.296 0.26 0.662 0.581s1.131 0.064 1.711-0.575l0.407-0.447z"></path>
</symbol>
<symbol id="icon-email" viewBox="0 0 32 32">
<path fill="#337d5a" style="fill: var(--color2, #337d5a)" d="M3.071 11.178c0.405 0.286 1.625 1.134 3.661 2.545s3.595 2.497 4.679 3.259c0.119 0.084 0.372 0.265 0.759 0.545s0.708 0.506 0.964 0.679c0.256 0.172 0.565 0.366 0.929 0.58s0.705 0.375 1.027 0.482c0.321 0.107 0.619 0.161 0.893 0.161h0.036c0.274 0 0.571-0.053 0.893-0.161s0.664-0.268 1.027-0.482c0.363-0.214 0.672-0.408 0.928-0.58s0.577-0.399 0.964-0.679c0.387-0.28 0.64-0.461 0.759-0.545 1.095-0.762 3.881-2.696 8.357-5.804 0.869-0.607 1.595-1.339 2.178-2.196s0.875-1.756 0.875-2.696c0-0.786-0.283-1.458-0.848-2.018s-1.235-0.839-2.009-0.839h-26.286c-0.917 0-1.622 0.309-2.116 0.928s-0.741 1.393-0.741 2.321c0 0.75 0.328 1.563 0.982 2.438s1.351 1.563 2.089 2.063z"></path>
<path fill="#337d5a" style="fill: var(--color2, #337d5a)" d="M30.214 13.089c-3.904 2.643-6.869 4.696-8.892 6.161-0.679 0.5-1.229 0.89-1.652 1.17s-0.985 0.565-1.688 0.857c-0.702 0.292-1.357 0.437-1.964 0.437h-0.036c-0.607 0-1.262-0.145-1.964-0.437s-1.265-0.577-1.687-0.857c-0.422-0.28-0.973-0.67-1.652-1.17-1.607-1.178-4.566-3.232-8.875-6.161-0.679-0.452-1.28-0.97-1.804-1.553v14.178c0 0.786 0.28 1.459 0.839 2.018s1.232 0.839 2.018 0.839h26.286c0.785 0 1.458-0.28 2.018-0.839s0.839-1.232 0.839-2.018v-14.178c-0.512 0.571-1.107 1.089-1.786 1.553z"></path>
</symbol>
<symbol id="icon-read" viewBox="0 0 32 32">
<path d="M31.633 16.885c-0 0-0.001 0.001-0.001 0.001l-6.531 6.5c-0.489 0.487-1.281 0.485-1.768-0.004s-0.485-1.281 0.004-1.768l4.385-4.364h-26.472c-0.69 0-1.25-0.56-1.25-1.25s0.56-1.25 1.25-1.25h26.472l-4.385-4.364c-0.489-0.487-0.491-1.278-0.004-1.768s1.279-0.491 1.768-0.004l6.532 6.5c0 0 0.001 0.001 0.001 0.001 0.49 0.489 0.488 1.283 0 1.77z"></path>
</symbol>
<symbol id="icon-eco" viewBox="0 0 32 32">
<path fill="#fff" style="fill: var(--color1, #fff)" d="M31.037 17.646c0.236 1.514 0.026 2.977-0.419 4.363-0.445 1.463-1.099 2.849-2.094 4.081-1.309 1.643-2.8 3.080-4.79 3.978-0.628 0.282-1.23 0.693-1.884 0.898-0.785 0.257-1.544 0.59-2.382 0.616-0.131 0-0.288-0.026-0.393 0.026-1.439 0.565-2.957 0.359-4.423 0.334-0.838-0.026-1.675-0.359-2.513-0.488-1.597-0.282-3.010-1.001-4.345-1.822-1.047-0.616-2.041-1.36-2.879-2.259-0.838-0.924-1.623-1.899-2.225-2.977-0.654-1.155-1.099-2.361-1.439-3.645-0.523-1.822-0.393-3.67-0.314-5.493 0.052-1.104 0.419-2.207 0.838-3.26 0.837-2.028 2.068-3.824 3.69-5.364 0.471-0.436 0.968-0.796 1.439-1.206 0.105-0.077 0.209-0.231 0.236-0.359 0.314-2.053 1.544-3.388 3.376-4.312 1.047-0.539 2.146-0.821 3.324-0.744 0.916 0.077 1.806 0.282 2.643 0.719 1.23 0.642 2.486 1.258 3.743 1.899 0.995 0.488 1.963 1.078 2.984 1.463s1.858 1.129 2.957 1.335c0.733 0.744 1.989 0.693 2.591 1.694-0.34 0.667-1.099 0.744-1.675 0.95-1.178 0.411-2.355 0.796-3.481 1.232-1.57 0.616-3.167 1.129-4.711 1.745-1.021 0.411-2.068 0.821-3.114 1.155-1.178 0.385-2.408 0.411-3.638 0.231-1.073-0.154-2.015-0.667-2.8-1.309s-1.518-1.412-1.806-2.413c-0.497-0.334-0.236-0.898-0.393-1.36-0.628 0.026-0.968 0.462-1.282 0.847-0.707 0.873-1.439 1.771-2.015 2.746-0.785 1.155-1.23 2.413-1.439 3.773-0.105 0.77-0.288 1.54-0.34 2.31-0.079 0.847 0.209 1.668 0.314 2.515 0.131 0.924 0.393 1.771 0.733 2.618 0.654 1.591 1.597 3.003 2.827 4.235 1.596 1.617 3.455 2.823 5.627 3.491 0.838 0.257 1.701 0.488 2.617 0.59 0.942 0.103 1.884 0.18 2.8 0.128 2.041-0.154 4.004-0.59 5.863-1.54 1.282-0.667 2.434-1.463 3.455-2.464 1.256-1.232 2.198-2.669 2.774-4.312 0.34-0.975 0.628-1.976 0.654-3.029 0.026-0.411 0.131-0.796 0.157-1.206 0.052-0.693 0.288-0.796 0.942-0.513 0.052 0.026 0.105 0.051 0.157 0.077 0.052 0 0.052 0.026 0.052 0.026zM8.503 6.173c-0.157 0-0.314 0-0.523 0-0.052 0.821 0.209 1.514 0.497 2.182 0.654 1.463 1.754 2.464 3.298 2.977 0.942 0.308 1.937 0.411 2.853 0.103 1.963-0.642 3.873-1.412 5.836-2.053 1.256-0.411 2.486-0.95 3.769-1.335 0.864-0.257 1.675-0.667 2.565-1.027-0.157-0.128-0.236-0.231-0.366-0.282-3.559-1.72-7.145-3.439-10.678-5.21-0.759-0.359-1.57-0.488-2.329-0.488-0.68 0-1.413 0.154-2.12 0.462-1.492 0.667-2.539 1.617-3.010 3.183-0.105 0.385-0.209 0.693-0.105 1.129 0.471 0 0.89 0 1.309 0 0.183 0.436 0.707-0.051 0.942 0.385-0.68-0.026-1.309-0.026-1.937-0.026z"></path>
<path fill="#fff" style="fill: var(--color1, #fff)" d="M22.636 21.265c-1.361 0.026-2.303-0.539-2.957-1.694-0.995-1.771-0.131-3.927 1.858-4.543 1.675-0.513 3.376 0.026 4.266 1.566 0.288 0.513 0.393 1.232 0.314 1.822-0.183 1.155-0.733 2.156-1.989 2.567-0.471 0.154-0.995 0.205-1.492 0.282zM20.882 18.056c0 1.052 0.916 1.976 1.884 1.951 0.916-0.026 1.832-1.001 1.832-1.976 0.026-1.027-0.811-1.822-1.858-1.874-1.021-0.026-1.989 0.821-1.858 1.899z"></path>
<path fill="#fff" style="fill: var(--color1, #fff)" d="M8.346 16.311c0 0.385 0 0.667 0 1.001 0.942 0 1.858 0 2.774 0 0.079 0.18 0.157 0.282 0.183 0.385 0.236 0.719 0.079 0.95-0.654 0.95-0.759 0-1.492 0-2.329 0-0.026 0.359-0.026 0.693-0.052 1.129 1.152 0 2.277 0 3.429 0 0.157 0.462 0.079 0.873 0.105 1.386-0.89 0-1.727 0-2.565 0-0.811 0-1.623 0-2.513 0 0-0.693 0-1.335 0-1.951 0-1.206 0-2.438 0-3.645 0-0.59 0.105-0.719 0.628-0.693 1.439 0.051 2.905 0.128 4.397 0.205 0 0.334 0 0.642 0 1.052-0.288 0.051-0.628 0.231-0.942 0.18-0.759-0.128-1.544 0.128-2.46 0z"></path>
<path fill="#fff" style="fill: var(--color1, #fff)" d="M18.475 15.926c-0.314 0.334-0.628 0.667-0.916 0.975-1.204-1.078-1.989-0.821-2.722-0.308-0.838 0.616-0.785 1.874-0.314 2.49 0.733 0.95 1.727 1.001 3.010 0.205 0.34 0.308 0.68 0.59 1.021 0.873-1.021 1.181-2.329 1.104-3.612 0.975-0.838-0.103-1.492-0.667-1.884-1.386-0.995-1.874-0.393-3.67 1.282-4.543 0.628-0.334 1.335-0.436 2.068-0.359 1.178 0.103 1.335 0.205 2.068 1.078z"></path>
<path fill="#fff" style="fill: var(--color1, #fff)" d="M12.246 8.278c-0.131-0.231-0.288-0.462-0.366-0.719-0.445-1.232-0.811-1.258-1.701-1.206-0.445 0.026-0.916 0-1.361-0.026-0.105 0-0.209-0.103-0.288-0.18 0.628 0 1.256 0 1.937 0-0.262-0.436-0.759 0.077-0.942-0.385 0.419 0 0.838 0 1.256 0 0.707 0 0.785-0.077 1.073-0.693 0.236-0.565 0.497-1.129 0.759-1.694 0.131-0.257 0.314-0.462 0.471-0.693 0.314 0.18 0.393 0.308 0.236 0.642-0.34 0.642-0.628 1.335-0.942 2.028-0.079 0.154-0.079 0.334-0.157 0.616 0.733 0 1.361 0 2.015 0 0.131 0 0.262 0.103 0.393 0.154-0.628 0-1.282 0.026-2.015 0.026 0.34 0.334 0.811-0.077 1.021 0.334-0.445 0-0.89 0-1.413 0 0.105 0.462 0.183 0.821 0.236 1.155-0.366 0.154-0.157 0.462-0.209 0.642z"></path>
<path fill="#fff" style="fill: var(--color1, #fff)" d="M13.633 6.532c-0.209-0.411-0.654 0-1.021-0.334 0.733 0 1.361-0.026 2.015-0.026 0.157 0 0.34 0 0.497 0 0.366 0.026 0.576-0.103 0.707-0.488 0.105-0.385 0.366-0.719 0.55-1.052 0.288 0.026 0.209 0.257 0.236 0.411-0.131 0.334-0.236 0.642-0.34 0.975 0 0.026 0.105 0.103 0.131 0.18 0.183 0.462 0.707-0.077 0.942 0.359-0.314 0-0.602-0.026-0.89 0-0.079 0-0.157 0.128-0.236 0.205 0.131 0.385 0.262 0.77 0.393 1.129 0 0.18 0 0.359 0 0.565-0.157-0.077-0.262-0.128-0.366-0.18-0.157-0.411-0.262-0.847-0.445-1.232-0.157-0.334-0.419-0.539-0.864-0.513-0.471 0.051-0.89 0.026-1.309 0z"></path>
<path fill="#fff" style="fill: var(--color1, #fff)" d="M16.171 6.763c0.079-0.077 0.157-0.205 0.236-0.205 0.288-0.026 0.55 0 0.89 0-0.236-0.436-0.759 0.077-0.942-0.385 1.099 0.051 2.225 0.103 3.324 0.154-0.052 0.488-0.576 0-0.707 0.334 0.183 0.257 0.628-0.154 0.707 0.282-1.152-0.051-2.329-0.103-3.507-0.18z"></path>
<path fill="#fff" style="fill: var(--color1, #fff)" d="M21.484 6.557c0.68 0.051 1.413-0.103 2.146 0.154-0.393 0.411-0.654 0.539-1.099 0.411-0.733-0.231-1.466-0.103-2.198-0.154-0.079 0-0.131 0-0.209 0 0-0.128 0-0.257 0-0.385 0.445-0.026 0.89-0.026 1.361-0.026z"></path>
<path fill="#fff" style="fill: var(--color1, #fff)" d="M12.246 8.277c0.052-0.205-0.157-0.488 0.209-0.59 0.131 0.231 0.262 0.462 0.366 0.719 0.131 0.334 0.236 0.693 0.366 1.104-0.209 0.103-0.419 0.257-0.576-0.103-0.131-0.359-0.445-0.667-0.366-1.129z"></path>
<path fill="#fff" style="fill: var(--color1, #fff)" d="M21.484 6.558c-0.471 0-0.916 0-1.387 0 0-0.18 0.026-0.385-0.236-0.411 0.052-0.18 0.079-0.488 0.157-0.513 0.366-0.077 0.157-0.231 0.105-0.385-0.026-0.051 0.079-0.154 0.131-0.205 0.026-0.026 0.131 0.026 0.157 0.077 0.366 0.411 0.131 0.795-0.105 1.155 0.366 0.282 0.864-0.128 1.178 0.282z"></path>
<path fill="#fff" style="fill: var(--color1, #fff)" d="M20.097 6.943c0.078 0 0.131 0 0.209 0 0.131 0.385 0.262 0.744 0.366 1.129 0.026 0.103-0.052 0.334-0.157 0.385-0.157 0.077-0.366 0.051-0.419-0.231-0.052-0.308-0.157-0.59-0.209-0.898 0.262-0.026 0.209-0.231 0.209-0.385z"></path>
<path fill="#fff" style="fill: var(--color1, #fff)" d="M20.097 6.943c0 0.154 0.052 0.359-0.209 0.385-0.052-0.128-0.131-0.257-0.183-0.385-0.105-0.436-0.523-0.051-0.707-0.282 0.131-0.334 0.654 0.154 0.707-0.334 0.052-0.077 0.105-0.128 0.183-0.205 0.262 0.026 0.236 0.231 0.236 0.411-0.026 0.154-0.026 0.282-0.026 0.411z"></path>
<path fill="#fff" style="fill: var(--color1, #fff)" d="M16.564 5.043c-0.026-0.18 0.052-0.385-0.236-0.411 0.079-0.205 0.131-0.411 0.236-0.616 0.157-0.257 0.366-0.205 0.602 0.026-0.183 0.308-0.393 0.667-0.602 1.001z"></path>
<path fill="#fff" style="fill: var(--color1, #fff)" d="M16.198 8.277c0.105 0.051 0.209 0.103 0.366 0.18 0-0.205 0-0.385 0-0.565 0.131 0.257 0.288 0.513 0.366 0.796 0.026 0.103-0.079 0.308-0.183 0.334s-0.314-0.051-0.366-0.154c-0.105-0.154-0.131-0.385-0.183-0.59z"></path>
</symbol>
<symbol id="icon-rosehip" viewBox="0 0 32 32">
<path fill="#fff" style="fill: var(--color1, #fff)" d="M1.244 29.737c-0.107 0.024-0.213 0.048-0.32 0.073-0.083 0-0.154 0.012-0.237 0.012-0.024-0.024-0.047-0.036-0.083-0.036 0.071-0.157 0.13-0.315 0.201-0.472 0.154-0.278 0.296-0.569 0.45-0.847 0.024-0.036 0.036-0.073 0.036-0.109 0.083-0.060 0.154-0.121 0.237-0.169 0.865 0.218 1.73 0.435 2.596 0.653 0.047 0.52 0.083 1.040 0.13 1.561-0.071 0.073-0.142 0.157-0.225 0.23-0.415-0.351-0.806-0.811-1.422-0.315-0.047 0.036-0.296-0.085-0.332-0.169-0.19-0.569-0.533-0.677-1.031-0.411z"></path>
<path fill="#fff" style="fill: var(--color1, #fff)" d="M0.924 26.906c-0.012-0.048-0.036-0.085-0.047-0.133-0.024-0.036-0.047-0.073-0.071-0.121 0-0.036-0.012-0.085-0.036-0.109-0.261-1.016-0.51-2.032-0.77-3.049 0.024-0.012 0.047-0.036 0.059-0.060 0.012-0.677 0.012-1.343 0.024-2.020 0-0.145-0.012-0.302-0.012-0.448 0.178-0.593 0.356-1.198 0.533-1.79 0.024-0.048 0.047-0.097 0.083-0.145 0.024-0.036 0.059-0.073 0.083-0.109 0.142-0.242 0.284-0.484 0.427-0.714 0.462-0.375 0.924-0.75 1.375-1.137 0.047-0.024 0.083-0.060 0.13-0.085 0.036 0 0.071-0.012 0.107-0.036 0.047-0.024 0.095-0.048 0.13-0.085 0.154-0.048 0.308-0.097 0.45-0.145 0.13-0.024 0.261-0.060 0.391-0.085 0.261-0.012 0.533-0.024 0.794-0.048 0.095-0.073 0.178-0.145 0.273-0.218 0.119-0.242 0.225-0.484 0.344-0.714 0.059-0.121 0.119-0.242 0.166-0.351 0.095-0.133 0.201-0.242 0.284-0.387 1.327-2.238 3.081-4.065 5.227-5.492 1.268-0.847 2.596-1.597 4.077-2.020 0.178-0.073 0.356-0.145 0.533-0.218 0.107-0.641 0.225-1.294 0.332-1.936 0.059-0.181 0.118-0.363 0.166-0.544 0.51-1.040 1.292-1.839 2.252-2.468 0.071-0.048 0.142-0.085 0.225-0.133 0.036 0 0.071-0.012 0.107-0.036 0.119-0.061 0.249-0.133 0.367-0.194 0.284-0.109 0.557-0.218 0.841-0.327 0.391-0.060 0.77-0.133 1.162-0.194 0.071 0.048 0.154 0.097 0.225 0.157 0.012 0.036 0.036 0.085 0.047 0.121 0.036 0.048 0.059 0.085 0.095 0.133 0.403 1.609 0.735 3.206 0.095 4.839-0.012 0.024 0.107 0.133 0.154 0.133 0.344-0.085 0.676-0.181 1.019-0.278 0.557-0.024 1.126-0.048 1.683-0.073 1.233 0.157 2.276 0.786 3.307 1.428 0.166 0.121 0.332 0.242 0.486 0.363 0.083 0.073 0.166 0.145 0.249 0.218-0.024 0.278 0.047 0.641-0.095 0.823-0.664 0.883-1.399 1.73-2.11 2.577-0.13 0.145-0.273 0.278-0.415 0.411 0.178 0.048 0.356 0.121 0.533 0.145 1.363 0.194 2.477 0.835 3.449 1.815 0.83 0.847 1.327 1.875 1.778 2.952 0.024 0.073 0.047 0.157 0.071 0.23 0.142 0.569 0.284 1.125 0.427 1.694 0.012 0.073 0.024 0.157 0.036 0.23 0.059 0.52-0.201 0.786-0.676 0.883-0.865 0.181-1.718 0.363-2.584 0.544-0.427-0.012-0.841-0.012-1.268-0.024-1.481-0.194-2.844-0.677-4.018-1.657-0.178-0.169-0.356-0.351-0.533-0.52l-0.024-0.036c-0.403-0.653-0.806-1.307-1.15-1.863-0.296 0.75-0.616 1.573-0.936 2.407-0.036 0.048-0.059 0.085-0.095 0.133-0.794 0.847-1.6 1.682-2.394 2.528-0.071 0-0.13 0-0.201 0-0.273-0.254-0.604-0.472-0.806-0.774-0.593-0.883-1.138-1.815-1.695-2.722-0.012-0.036-0.012-0.085-0.024-0.121-0.024-0.061-0.047-0.109-0.083-0.169-0.201-0.932-0.332-1.863-0.118-2.807 0.012-0.073 0-0.145 0-0.218-0.071 0.024-0.154 0.048-0.213 0.085-1.067 0.69-2.252 1.040-3.484 1.307-0.593-0.266-0.45-0.859-0.557-1.343 0.024-0.823 0.047-1.645 0.083-2.468 0.083-0.411 0.178-0.835 0.261-1.246 0.201-0.327 0.391-0.653 0.593-0.98 0.047-0.073 0.095-0.145 0.142-0.23 0.012-0.024 0.024-0.048 0.036-0.085-0.024 0.012-0.047 0.024-0.071 0.036-0.071 0.048-0.142 0.085-0.225 0.133-0.237 0.169-0.474 0.327-0.723 0.496-0.261 0.181-0.51 0.363-0.77 0.532-0.356 0.218-0.51 0.496-0.427 0.944 0.154 0.75 0.273 1.524 0.403 2.274 0.344 0.774 0.687 1.548 1.019 2.323 0.142 0.327 0.249 0.69 0.735 0.581 1.173-0.278 2.098 0.218 2.916 0.992 0.735 0.871 1.126 1.924 1.446 3.012 0.012 0.121 0.024 0.242 0.036 0.363 0.024 0.121 0.059 0.254 0.083 0.375 0.095 1.343-0.154 2.613-0.723 3.823-0.747 0.653-1.707 0.762-2.596 1.040-2.038-1.028-3.437-2.613-4.065-4.875 0.012-0.036 0.024-0.073 0.036-0.097 0.083-0.895 0.166-1.79 0.237-2.698 0.308-0.375 0.604-0.774 0.936-1.137 0.166-0.169 0.308-0.278 0.142-0.544-0.877-1.415-1.41-2.964-1.647-4.621-0.059-0.375-0.166-0.278-0.332-0.097-1.055 1.101-1.896 2.371-2.607 3.726-0.036 0.073 0.059 0.339 0.142 0.363 1.41 0.472 2.193 1.5 2.572 2.928 0.024 0.060 0.047 0.109 0.071 0.169-0.012 0.024-0.012 0.048 0.012 0.073 0.012 0.641 0.012 1.294 0.024 1.936-0.273 1.984-1.102 3.69-2.394 5.178-0.628 0.448-1.256 0.907-1.884 1.355-0.237-0.012-0.474 0.012-0.699-0.036-0.593-0.133-1.185-0.327-1.778-0.436-0.415-0.073-0.723-0.266-0.936-0.629-0.012-0.036-0.036-0.085-0.047-0.121-0.024-0.036-0.059-0.085-0.083-0.121 0-0.036-0.012-0.073-0.036-0.109 0-0.048-0.036-0.085-0.059-0.121zM18.56 8.493h-0.012c0.083-0.073 0.166-0.157 0.249-0.23 0.676-0.085 0.806-0.218 0.83-0.847 0.379 0.048 0.379-0.206 0.367-0.484 0.439-0.121 0.521-0.448 0.474-0.859h-0.012c0.498-0.23 0.154-0.677 0.237-1.016-0.071-0.677-0.154-1.355-0.225-2.032-0.047-0.423-0.237-0.46-0.604-0.327-2.489 0.895-3.508 2.734-2.963 5.395 0.166 0.786 0.249 0.859 1.031 0.75 0.201-0.024 0.486 0.121 0.474-0.266l0.012 0.024c0.059-0.024 0.107-0.073 0.142-0.109zM21.57 7.937c-0.119 0.085-0.237 0.169-0.344 0.254v0c-0.308-0.073-0.427 0.085-0.474 0.363v-0.012c-0.036 0.036-0.083 0.085-0.119 0.121l0.012 0.024c-0.569-0.109-0.415 0.387-0.521 0.665-0.296-0.012-0.367 0.169-0.332 0.436 0 0.024 0 0.048-0.024 0.060-0.284-0.024-0.486 0.060-0.474 0.411 0.012 0.266-0.047 0.581 0.379 0.544 0.379 0.218 0.747 0.448 1.138 0.629 1.553 0.738 3.070 0.762 4.444-0.387 0.616-0.52 1.102-1.198 1.647-1.803 0.237-0.266 0.154-0.436-0.119-0.617-1.221-0.798-2.501-1.379-3.994-1.198-0.213 0.073-0.439 0.157-0.652 0.23-0.024 0.024-0.047 0.024-0.071 0.024-0.178 0.085-0.344 0.169-0.498 0.254 0 0-0.012 0 0 0zM20.243 18.075c0.083-0.085 0.154-0.157 0.237-0.242 0.047-0.206 0.119-0.423 0.13-0.629 0.012-0.677-0.012-1.355-0.024-2.020l0.012 0.012c-0.024-0.048-0.047-0.085-0.083-0.133-0.249-1.040-0.782-1.924-1.434-2.746-0.213-0.266-0.403-0.315-0.604-0.048-0.581 0.75-1.256 1.452-1.695 2.286-0.296 0.581-0.379 1.355-0.344 2.032 0.071 1.476 0.877 2.625 1.802 3.714 0.071 0.060 0.178 0.169 0.19 0.157 0.332-0.315 0.841-0.496 0.818-1.089l0.012-0.012c0.083-0.109 0.166-0.23 0.261-0.339h-0.012c0.379-0.097 0.498-0.363 0.474-0.726h-0.012c0.095-0.073 0.178-0.145 0.273-0.218zM25.944 13.381c-0.427-0.036-0.853-0.073-1.268-0.121 0.012 0.024 0.024 0.060 0.047 0.085 0.012 0.012 0.036 0.012 0.059 0.012-0.557 0.121-1.126 0.206-1.671 0.363-0.593 0.169-0.818 0.532-0.699 1.137 0.273 1.379 0.865 2.589 1.991 3.46 1.861 1.44 3.935 1.44 6.092 0.944 0.332-0.073 0.332-0.29 0.273-0.544-0.664-2.674-1.956-4.754-4.824-5.335zM12.184 13.683c0 0.266 0.012 0.52 0 0.786-0.024 0.436 0.178 0.569 0.533 0.399 0.794-0.387 1.636-0.714 2.347-1.222 0.758-0.544 1.304-1.331 1.553-2.286 0.32-1.27-0.616-2.238-1.837-1.875-0.415 0.121-0.83 0.375-1.162 0.665-1.067 0.919-1.505 2.129-1.434 3.532z"></path>
<path fill="#fff" style="fill: var(--color1, #fff)" d="M9.327 21.849c-0.047-0.617-0.095-1.246-0.142-1.863 0.13-0.278 0.261-0.556 0.379-0.823-0.071 0.883-0.154 1.79-0.237 2.686z"></path>
<path fill="#fff" style="fill: var(--color1, #fff)" d="M20.207 17.809c0.32-0.847 0.439-1.73 0.367-2.637 0.012 0.677 0.036 1.355 0.024 2.020 0 0.206-0.083 0.423-0.13 0.629-0.071 0-0.154 0-0.225 0.012l-0.036-0.024z"></path>
<path fill="#fff" style="fill: var(--color1, #fff)" d="M18.228 20.289c0.344-0.315 0.676-0.617 1.019-0.932 0.012 0.593-0.498 0.774-0.818 1.089-0.024 0.012-0.13-0.097-0.201-0.157z"></path>
<path fill="#fff" style="fill: var(--color1, #fff)" d="M18.797 8.252c0.273-0.278 0.557-0.569 0.83-0.847-0.024 0.629-0.154 0.774-0.83 0.847z"></path>
<path fill="#fff" style="fill: var(--color1, #fff)" d="M11.141 14.917c-0.024-0.641-0.036-1.282-0.059-1.936 0.047-0.181 0.095-0.363 0.13-0.544-0.024 0.835-0.047 1.657-0.071 2.48z"></path>
<path fill="#fff" style="fill: var(--color1, #fff)" d="M19.757 9.848c-0.071 0.315-0.569 0.593-0.083 0.956-0.427 0.036-0.367-0.278-0.379-0.544-0.024-0.363 0.178-0.436 0.462-0.411z"></path>
<path fill="#fff" style="fill: var(--color1, #fff)" d="M20.634 8.687c-0.178 0.218-0.344 0.448-0.521 0.665 0.107-0.278-0.047-0.762 0.521-0.665z"></path>
<path fill="#fff" style="fill: var(--color1, #fff)" d="M19.496 19.018c0.154-0.242 0.32-0.484 0.474-0.726 0.024 0.363-0.083 0.641-0.474 0.726z"></path>
<path fill="#fff" style="fill: var(--color1, #fff)" d="M19.994 6.933c0.154-0.29 0.32-0.569 0.474-0.859 0.047 0.411-0.036 0.738-0.474 0.859z"></path>
<path fill="#fff" style="fill: var(--color1, #fff)" d="M25.944 13.381c-0.391 0-0.782-0.012-1.173-0.012-0.024 0-0.047 0-0.059-0.012-0.024-0.024-0.036-0.048-0.047-0.085 0.427 0.036 0.853 0.073 1.28 0.109z"></path>
<path fill="#fff" style="fill: var(--color1, #fff)" d="M20.456 6.086c0.083-0.339 0.154-0.677 0.237-1.016-0.071 0.339 0.261 0.786-0.237 1.016z"></path>
<path fill="#fff" style="fill: var(--color1, #fff)" d="M19.627 7.417c0.119-0.157 0.249-0.315 0.367-0.484 0.012 0.266 0.012 0.52-0.367 0.484z"></path>
<path fill="#fff" style="fill: var(--color1, #fff)" d="M21.215 8.191c-0.154 0.121-0.308 0.242-0.474 0.363 0.047-0.278 0.166-0.448 0.474-0.363z"></path>
<path fill="#fff" style="fill: var(--color1, #fff)" d="M17.944 8.856c0.154-0.085 0.32-0.181 0.474-0.266 0 0.399-0.284 0.254-0.474 0.266z"></path>
<path fill="#fff" style="fill: var(--color1, #fff)" d="M22.791 7.441c-0.213 0.073-0.439 0.157-0.652 0.23 0.213-0.085 0.427-0.157 0.652-0.23z"></path>
<path fill="#fff" style="fill: var(--color1, #fff)" d="M19.97 18.293c0.083-0.157 0.154-0.327 0.237-0.484l0.036 0.036c0 0.085 0 0.157 0 0.242-0.095 0.061-0.178 0.133-0.273 0.206z"></path>
<path fill="#fff" style="fill: var(--color1, #fff)" d="M15.135 7.272c0.118-0.024 0.237-0.048 0.356-0.073-0.178 0.073-0.356 0.145-0.533 0.218 0.059-0.060 0.118-0.097 0.178-0.145z"></path>
<path fill="#fff" style="fill: var(--color1, #fff)" d="M20.113 9.352c-0.107 0.145-0.225 0.29-0.332 0.436-0.036-0.266 0.036-0.436 0.332-0.436z"></path>
<path fill="#fff" style="fill: var(--color1, #fff)" d="M20.243 18.075c0-0.085 0-0.157 0-0.242 0.071 0 0.154 0 0.225-0.012-0.071 0.085-0.154 0.169-0.225 0.254z"></path>
<path fill="#fff" style="fill: var(--color1, #fff)" d="M13.618 27.148c0.545-0.169 1.090-0.315 1.624-0.52 0.308-0.121 0.521-0.085 0.723 0.169 0.166 0.29 0.332 0.581 0.498 0.871-0.32 0.036-0.64 0.060-0.96 0.097-0.249 0.085-0.486 0.169-0.735 0.254h0.012c-0.107-0.024-0.225-0.036-0.332-0.060-0.024 0.036-0.059 0.048-0.095 0.060-0.059 0.073-0.13 0.145-0.19 0.218-0.047 0.060-0.083 0.133-0.13 0.194-0.083 0.085-0.178 0.145-0.261 0.218-0.036-0.121-0.107-0.242-0.119-0.363-0.024-0.387-0.024-0.762-0.036-1.137z"></path>
<path fill="#fff" style="fill: var(--color1, #fff)" d="M14.767 28.007c0.249-0.085 0.486-0.169 0.735-0.254-0.284 0.629-0.284 0.629-0.735 0.254z"></path>
</symbol>
<symbol id="icon-hazelnut" viewBox="0 0 32 32">
<path fill="#fff" style="fill: var(--color1, #fff)" d="M26.297 5.626c-5.215-5.214-11.161-6.878-16.749-4.681l-0.72 0.284 0.421 0.65c0.194 0.3 0.389 0.578 0.583 0.844-1.455 0.735-2.854 1.769-4.171 3.085-2.784 2.784-4.749 7.527-5.393 13.014-0.446 3.797-0.152 7.194 0.739 9.351 0.167 0.584 0.428 1.067 0.792 1.422 0.022 0.022 0.050 0.030 0.074 0.048 0.030 0.035 0.060 0.070 0.091 0.104 0.008 0.008 0.013 0.018 0.021 0.026 0.006 0.006 0.007 0.014 0.013 0.020 0.003 0.003 0.007 0.006 0.011 0.009 0.002 0.002 0.003 0.004 0.005 0.006s0.004 0.003 0.006 0.004c0.003 0.003 0.007 0.006 0.011 0.010 0.008 0.008 0.016 0.019 0.024 0.027 0.053 0.054 0.121 0.101 0.178 0.153 0.011 0.009 0.021 0.020 0.033 0.029 1.388 1.246 3.963 1.947 7.326 1.968 0.050 0.001 0.099 0.001 0.148 0.001 5.311 0 12.389-1.768 16.367-5.747 1.354-1.354 2.41-2.802 3.151-4.313 0.279 0.185 0.57 0.369 0.88 0.553l0.65 0.385 0.266-0.707c2.076-5.525 0.386-11.401-4.758-16.544zM25.212 25.358c-3.758 3.758-10.568 5.4-15.611 5.375-0.857-0.005-1.66-0.065-2.407-0.163 3.471-0.688 7.779-2.925 9.767-6.171 0.183-0.298 0.089-0.688-0.209-0.871-0.3-0.182-0.688-0.089-0.871 0.209-1.908 3.114-6.51 5.365-9.857 5.739-1.453 0.161-2.572-0.038-3.094-0.547-0.009-0.009-0.017-0.020-0.025-0.029-0.363-0.773 1.746-5.377 4.773-7.623 0.28-0.208 0.339-0.605 0.131-0.885s-0.605-0.34-0.885-0.131c-2.070 1.536-4.001 4.367-4.852 6.528-0.016-0.373-0.004-0.778 0.046-1.218 0.376-3.348 2.625-7.951 5.739-9.858 0.298-0.182 0.392-0.572 0.209-0.871s-0.572-0.391-0.871-0.209c-2.843 1.741-4.912 5.262-5.845 8.442-0.047-1.278 0.008-2.671 0.176-4.106 0.602-5.132 2.482-9.718 5.030-12.266 1.29-1.29 2.659-2.284 4.073-2.963 2.001 2.337 3.899 3.093 5.115 3.32-0.137 0.193-0.255 0.382-0.376 0.573-0.064 0.1-0.138 0.201-0.198 0.301-0.079 0.132-0.142 0.261-0.215 0.392-0.086 0.156-0.18 0.313-0.257 0.467-0.035 0.072-0.061 0.141-0.094 0.211-0.099 0.21-0.198 0.42-0.279 0.626-0.010 0.024-0.016 0.047-0.025 0.071-1.381 3.538-0.353 6.36-0.064 7.025l0.1 0.23 0.23 0.1c0.618 0.267 3.095 1.177 6.28 0.198 0.001 0 0.002-0.001 0.003-0.001 0.23-0.071 0.465-0.157 0.702-0.248 0.037-0.014 0.073-0.024 0.109-0.039 0.18-0.072 0.364-0.16 0.548-0.244 0.097-0.045 0.192-0.081 0.29-0.13 0.144-0.072 0.291-0.16 0.438-0.239 0.141-0.077 0.279-0.146 0.421-0.231 0.103-0.062 0.208-0.138 0.311-0.205 0.187-0.12 0.373-0.234 0.562-0.369 0.246 1.323 1.125 3.453 3.982 5.645-0.683 1.452-1.69 2.85-3.002 4.162zM30.119 20.992c-0.189-0.122-0.355-0.243-0.528-0.363l-0.22-0.159c-4.282-3.094-3.971-5.911-3.95-6.064l0.286-1.704-0.011 0.009-1.312 1.115c-4.18 3.55-8.031 2.539-9.077 2.162-0.071-0.196-0.164-0.491-0.245-0.868-0.108-0.503-0.195-1.152-0.179-1.909 0.035-1.702 0.589-3.949 2.586-6.299l1.113-1.309-1.694 0.273c-0.008 0.001-0.026 0.004-0.053 0.006-0.008 0.001-0.021 0.001-0.032 0.002-0.015 0.001-0.032 0.002-0.050 0.003-0.562 0.021-2.859-0.105-5.445-3.322l-0.181-0.225c-0.122-0.158-0.243-0.31-0.365-0.483 4.872-1.569 10.039 0.067 14.638 4.667 4.542 4.54 6.199 9.648 4.718 14.47z"></path>
</symbol>
<symbol id="icon-walnut" viewBox="0 0 32 32">
<path fill="#fff" style="fill: var(--color1, #fff)" d="M6.315 13.24c0.712-1.839 1.581-3.572 2.847-5.087 2.189-2.621 4.976-3.831 8.369-3.57 0.867 0.063 1.676-0.017 2.375-0.644 0.418-0.376 0.885-0.257 1.164 0.239 0.212 0.378 0.375 0.776 0.579 1.158 0.361 0.691 0.868 1.273 1.486 1.742 3.148 2.343 4.188 5.531 3.392 9.319-0.817 3.889-2.661 7.29-5.458 10.112-1.901 1.917-4.204 2.869-6.92 2.538-0.667-0.080-1.324-0.273-1.98-0.429-0.457-0.108-0.904-0.264-1.365-0.381-3.138-0.789-4.889-2.862-5.471-6.007-0.334-1.819-0.197-3.633 0.15-5.433 0.23-1.195 0.547-2.374 0.831-3.558zM20.16 4.919c-0.038-0.013-0.070-0.024-0.106-0.044-0.787 0.53-1.667 0.608-2.575 0.538-1.571-0.12-3.092 0.089-4.525 0.786-1.979 0.948-3.379 2.497-4.456 4.375-1.298 2.265-2.006 4.729-2.359 7.308-0.249 1.826-0.264 3.64 0.335 5.399 0.754 2.219 2.228 3.667 4.548 4.149 0.135 0.025 0.358-0.020 0.428-0.119 0.807-1.124 1.325-2.343 1.319-3.765-0.014-2.244 0.41-4.408 1.531-6.372 0.689-1.216 1.473-2.378 2.275-3.526 1.355-1.934 2.603-3.912 3.13-6.25 0.187-0.826 0.304-1.655 0.455-2.479zM12.196 27.722c0.104 0.051 0.17 0.088 0.24 0.113 2.59 0.837 5.006 0.548 7.216-1.145 1.294-0.998 2.305-2.255 3.164-3.629 1.339-2.157 2.482-4.41 2.955-6.941 0.625-3.398-0.248-6.245-3.074-8.338-0.637-0.476-1.174-1.054-1.596-1.737-0.065-0.102-0.129-0.205-0.221-0.352-0.030 0.127-0.052 0.192-0.060 0.254-0.269 1.841-0.768 3.624-1.72 5.226-0.816 1.375-1.7 2.719-2.645 4.013-1.884 2.59-2.949 5.421-2.87 8.652 0.007 0.372-0.066 0.745-0.139 1.118-0.199 1.003-0.67 1.882-1.251 2.767z"></path>
<path fill="#fff" style="fill: var(--color1, #fff)" d="M9.877 14.828c0.12-0.509 0.227-1.022 0.353-1.529 0.465-1.809 1.47-3.212 3.079-4.166 0.299-0.179 0.555-0.133 0.68 0.085 0.129 0.226 0.029 0.452-0.272 0.637-1.567 0.939-2.446 2.351-2.795 4.135-0.296 1.527-0.899 2.911-1.905 4.111-0.101 0.124-0.212 0.238-0.334 0.34-0.204 0.175-0.423 0.186-0.604-0.015-0.17-0.19-0.148-0.399 0.038-0.581 0.643-0.631 1.095-1.394 1.439-2.216 0.111-0.258 0.187-0.536 0.281-0.808 0.015-0.002 0.028 0.002 0.041 0.007z"></path>
<path fill="#fff" style="fill: var(--color1, #fff)" d="M17.158 9.67c-0.436 0.986-1.017 1.849-1.686 2.659-0.208 0.246-0.459 0.289-0.647 0.108-0.213-0.212-0.158-0.432 0.015-0.64 0.569-0.686 1.097-1.4 1.398-2.245 0.146-0.398 0.205-0.834 0.257-1.251 0.034-0.263 0.108-0.455 0.381-0.476 0.285-0.016 0.463 0.154 0.443 0.437-0.027 0.469-0.103 0.935-0.161 1.408z"></path>
<path fill="#fff" style="fill: var(--color1, #fff)" d="M11.505 21.721c-0.333 0.811-0.74 1.568-1.298 2.243-0.059 0.066-0.12 0.139-0.186 0.203-0.188 0.188-0.398 0.238-0.599 0.052-0.207-0.188-0.173-0.408-0.005-0.603 0.894-1.022 1.411-2.218 1.598-3.559 0.036-0.248 0.189-0.398 0.446-0.374 0.263 0.026 0.41 0.201 0.367 0.468-0.099 0.531-0.215 1.048-0.324 1.568z"></path>
<path fill="#fff" style="fill: var(--color1, #fff)" d="M22.984 19.43c-0.616 1.727-1.384 2.945-2.671 3.779-0.186 0.123-0.39 0.234-0.601 0.305-0.213 0.078-0.441-0.009-0.485-0.234-0.025-0.154 0.050-0.432 0.162-0.487 2.009-1.054 2.749-2.89 3.096-4.979 0.005-0.035 0.010-0.069 0.021-0.101 0.047-0.259 0.191-0.426 0.465-0.389 0.28 0.040 0.399 0.233 0.343 0.518-0.137 0.641-0.27 1.268-0.331 1.588z"></path>
<path fill="#fff" style="fill: var(--color1, #fff)" d="M17.196 23.45c-0.376 1.058-0.895 2.036-1.552 2.952-0.151 0.208-0.333 0.319-0.582 0.189-0.213-0.11-0.261-0.301-0.184-0.521 0.029-0.084 0.097-0.155 0.149-0.223 0.982-1.44 1.698-2.981 1.841-4.75 0.016-0.212 0.014-0.43 0.017-0.646 0.005-0.281 0.113-0.468 0.409-0.474 0.302-0.003 0.404 0.199 0.417 0.471 0.021 0.928-0.129 1.832-0.416 2.717-0.032 0.090-0.065 0.187-0.099 0.284z"></path>
<path fill="#fff" style="fill: var(--color1, #fff)" d="M21.763 12.542c-0.639 1.422-0.837 2.918-0.672 4.461 0.035 0.331-0.088 0.542-0.346 0.561-0.318 0.027-0.443-0.169-0.475-0.448-0.193-1.647 0.024-3.238 0.673-4.772 0.024-0.049 0.055-0.097 0.082-0.153 0.122-0.247 0.308-0.328 0.557-0.219 0.219 0.091 0.291 0.319 0.181 0.57z"></path>
</symbol>
<symbol id="icon-package" viewBox="0 0 32 32">
<path fill="#337d5a" style="fill: var(--color2, #337d5a)" d="M25.652 6.48h-5.533v-2.237c0-2.339-1.846-4.243-4.116-4.243s-4.117 1.903-4.117 4.243v2.237h-5.538l-1.014 23.911h21.333l-1.015-23.911zM12.812 4.242c0-1.812 1.432-3.288 3.191-3.288s3.188 1.476 3.188 3.288v2.237h-6.379v-2.237z"></path>
</symbol>
<symbol id="icon-mass" viewBox="0 0 32 32">
<path fill="#337d5a" style="fill: var(--color2, #337d5a)" d="M30.086 28.634c-0.231-0.79-4-14.898-4.513-16.818-0.511-1.919-1.846-2.432-3.349-2.432-0.519 0-2.519 0-4.902 0v-1.773c9.118-0.849 11.55-7.611 11.55-7.611h-26.347c0 0 2.039 7.143 11.789 7.65v1.733c-2.218 0-4.045 0-4.537 0-1.504 0-2.838 0.513-3.35 2.432s-4.28 16.028-4.512 16.818c-0.289 0.99-0.199 2.283 1.816 2.283 0.222 0 0.726 0 1.439 0v1.084h21.415v-1.083c0.836 0 1.438 0 1.684 0 2.018 0 2.107-1.293 1.818-2.283zM16 11.216c4.937 0 8.937 3.998 8.937 8.935s-4 8.935-8.937 8.935c-4.935 0-8.935-3.999-8.935-8.935s4-8.935 8.935-8.935z"></path>
<path fill="#337d5a" style="fill: var(--color2, #337d5a)" d="M10.87 16.218l-0.917-0.653-0.271 0.38 0.904 0.641c0.084-0.129 0.188-0.244 0.284-0.368z"></path>
<path fill="#337d5a" style="fill: var(--color2, #337d5a)" d="M13.392 14.216l-0.5-1.011-0.419 0.208 0.51 1.026c0.137-0.073 0.267-0.159 0.409-0.223z"></path>
<path fill="#337d5a" style="fill: var(--color2, #337d5a)" d="M9.511 20.15c0-0.053 0.015-0.1 0.017-0.152h-1.138v0.466h1.153c-0.004-0.107-0.032-0.206-0.032-0.314z"></path>
<path fill="#337d5a" style="fill: var(--color2, #337d5a)" d="M23.012 16.73l-0.224-0.407-1.169 0.64c0.074 0.133 0.153 0.27 0.222 0.407l1.171-0.64z"></path>
<path fill="#337d5a" style="fill: var(--color2, #337d5a)" d="M20.299 13.726l-0.401-0.24-0.647 1.078c0.134 0.079 0.277 0.142 0.408 0.229l0.64-1.067z"></path>
<path fill="#337d5a" style="fill: var(--color2, #337d5a)" d="M16.349 13.697v-1.197h-0.466v1.173c0.039 0 0.077-0.011 0.116-0.011 0.121 0 0.232 0.029 0.35 0.035z"></path>
<path fill="#337d5a" style="fill: var(--color2, #337d5a)" d="M19.761 27.051l-0.623-1.256c-0.135 0.077-0.268 0.16-0.409 0.225l0.612 1.238 0.42-0.207z"></path>
<path fill="#337d5a" style="fill: var(--color2, #337d5a)" d="M22.553 24.517l-1.136-0.807c-0.084 0.131-0.189 0.246-0.283 0.368l1.148 0.817 0.271-0.379z"></path>
<path fill="#337d5a" style="fill: var(--color2, #337d5a)" d="M22.49 20.15c0 0.107-0.026 0.207-0.030 0.313h1.387v-0.466h-1.37c-0.001 0.054 0.014 0.1 0.014 0.153z"></path>
<path fill="#337d5a" style="fill: var(--color2, #337d5a)" d="M15.883 26.628v1.329h0.466v-1.354c-0.118 0.006-0.229 0.035-0.35 0.035-0.039 0-0.077-0.011-0.116-0.011z"></path>
<path fill="#337d5a" style="fill: var(--color2, #337d5a)" d="M10.278 23.146l-1.059 0.576 0.224 0.408 1.055-0.574c-0.080-0.134-0.149-0.271-0.22-0.41z"></path>
<path fill="#337d5a" style="fill: var(--color2, #337d5a)" d="M12.998 25.87c-0.139-0.073-0.278-0.144-0.411-0.224l-0.652 1.084 0.4 0.24 0.663-1.1z"></path>
<path fill="#337d5a" style="fill: var(--color2, #337d5a)" d="M13.264 24.693l0.359 0.203 2.248-3.761c0.092 0.020 0.177 0.056 0.274 0.056 0.79 0 1.429-0.64 1.429-1.428 0-0.789-0.639-1.429-1.429-1.429-0.787 0-1.427 0.639-1.427 1.429 0 0.451 0.222 0.836 0.549 1.1l-2.003 3.83zM16.146 19.355c0.228 0 0.41 0.184 0.41 0.408 0 0.226-0.183 0.41-0.41 0.41-0.226 0-0.407-0.184-0.407-0.41s0.181-0.408 0.407-0.408z"></path>
</symbol>
<symbol id="icon-left-arrow" viewBox="0 0 32 32">
<path d="M13.333 29.333l1.867-1.867-10.133-10.133h26.933v-2.667h-26.933l10.133-10.133-1.867-1.867-13.333 13.333 13.333 13.333z"></path>
</symbol>
<symbol id="icon-right-arrow" viewBox="0 0 32 32">
<path d="M18.667 29.333l-1.867-1.867 10.133-10.133h-26.933v-2.667h26.933l-10.133-10.133 1.867-1.867 13.333 13.333-13.333 13.333z"></path>
</symbol>
<symbol id="icon-zoom" viewBox="0 0 32 32">
<path fill="#fff" style="fill: var(--color1, #fff)" opacity="0.15" d="M32 16c0 8.837-7.163 16-16 16s-16-7.163-16-16c0-8.837 7.163-16 16-16s16 7.163 16 16z"></path>
<path fill="#93b474" style="fill: var(--color4, #93b474)" d="M29.091 16c0 7.23-5.861 13.091-13.091 13.091s-13.091-5.861-13.091-13.091c0-7.23 5.861-13.091 13.091-13.091s13.091 5.861 13.091 13.091z"></path>
<path fill="#fff" style="fill: var(--color1, #fff)" d="M21.16 20.538l-2.543-2.543c0.63-0.769 1.010-1.753 1.010-2.826 0-2.461-1.997-4.459-4.459-4.459-2.464 0-4.459 1.997-4.459 4.459s1.995 4.459 4.459 4.459c1.073 0 2.055-0.378 2.824-1.008l2.543 2.541c0.173 0.173 0.451 0.173 0.624 0 0.173-0.171 0.173-0.451 0-0.622zM15.169 18.74c-1.971 0-3.573-1.602-3.573-3.571s1.602-3.573 3.573-3.573c1.969 0 3.573 1.604 3.573 3.573s-1.604 3.571-3.573 3.571z"></path>
</symbol>
<symbol id="icon-flag" viewBox="0 0 32 32">
<path d="M1.613 9.975c0 0-1.613 0.329-1.613 1.989s0 10.153 0 10.153 0.179-2.045 1.613-2.045h30.387l-3.099-5.228 3.099-4.868h-30.387z"></path>
</symbol>
<symbol id="icon-whatsapp" viewBox="0 0 32 32">
<path style="fill: var(--color2, #337d5a)" d="M32 16c0 8.837-7.163 16-16 16s-16-7.163-16-16c0-8.837 7.163-16 16-16s16 7.163 16 16z"></path>
<path style="fill: var(--color1, #fff)" d="M24.774 15.801c0 4.165-3.403 7.542-7.602 7.542-1.332 0-2.584-0.341-3.674-0.938l-4.208 1.336 1.372-4.048c-0.692-1.136-1.090-2.47-1.090-3.894 0.001-4.165 3.402-7.542 7.601-7.542s7.601 3.377 7.601 7.543zM17.172 9.461c-3.524 0-6.39 2.845-6.39 6.342 0 1.387 0.452 2.672 1.217 3.717l-0.798 2.354 2.455-0.78c1.010 0.663 2.218 1.048 3.516 1.048 3.524 0 6.391-2.844 6.391-6.341 0.001-3.495-2.867-6.34-6.391-6.34zM21.011 17.538c-0.047-0.076-0.172-0.123-0.357-0.216s-1.103-0.54-1.273-0.6c-0.172-0.062-0.296-0.093-0.42 0.092-0.123 0.185-0.48 0.601-0.59 0.726-0.108 0.124-0.217 0.139-0.403 0.048-0.186-0.094-0.787-0.288-1.499-0.917-0.554-0.491-0.928-1.095-1.036-1.28-0.11-0.185-0.011-0.285 0.081-0.377 0.083-0.083 0.186-0.216 0.28-0.325 0.093-0.108 0.124-0.184 0.186-0.307s0.030-0.231-0.016-0.325c-0.046-0.093-0.419-1.002-0.575-1.372-0.155-0.37-0.31-0.309-0.419-0.309s-0.233-0.015-0.357-0.015c-0.124 0-0.326 0.045-0.496 0.23s-0.652 0.632-0.652 1.542c0 0.911 0.667 1.789 0.76 1.912s1.29 2.051 3.183 2.791c1.895 0.74 1.895 0.493 2.236 0.461s1.103-0.447 1.257-0.878c0.155-0.433 0.155-0.804 0.109-0.882z"></path>
</symbol>
<symbol id="icon-telegram" viewBox="0 0 32 32">
<path style="fill: var(--color2, #337d5a)" d="M32 16c0 8.837-7.163 16-16 16s-16-7.163-16-16c0-8.837 7.163-16 16-16s16 7.163 16 16z"></path>
<path style="fill: var(--color1, #fff)" d="M18.86 22.979c-0.113 0-0.225-0.033-0.321-0.099l-3.634-2.465-1.949 1.402c-0.153 0.11-0.35 0.138-0.527 0.074s-0.312-0.21-0.36-0.392l-0.979-3.709-3.497-1.337c-0.22-0.084-0.366-0.295-0.368-0.53s0.141-0.448 0.361-0.535l13.295-5.29c0.060-0.026 0.124-0.040 0.189-0.044 0.023-0.001 0.046-0.001 0.069-0 0.133 0.008 0.264 0.062 0.367 0.162 0.011 0.010 0.021 0.021 0.030 0.032 0.085 0.097 0.131 0.215 0.14 0.335 0.002 0.030 0.002 0.061-0.001 0.091-0.002 0.022-0.005 0.044-0.009 0.065l-2.244 11.775c-0.036 0.189-0.165 0.348-0.343 0.421-0.070 0.029-0.145 0.044-0.219 0.044zM15.224 19.25l3.237 2.195 1.746-9.162-6.307 6.069 1.309 0.888c0.005 0.003 0.010 0.007 0.015 0.010zM12.529 18.762l0.433 1.642 0.934-0.672-1.223-0.829c-0.057-0.038-0.105-0.086-0.144-0.141zM9.372 15.909l2.401 0.918c0.172 0.066 0.302 0.21 0.349 0.388l0.305 1.154c0.014-0.133 0.074-0.258 0.172-0.353l6.009-5.783-9.236 3.675z"></path>
</symbol>
<symbol id="icon-viber" viewBox="0 0 32 32">
<path style="fill: var(--color2, #337d5a)" d="M32 16c0 8.837-7.163 16-16 16s-16-7.163-16-16c0-8.837 7.163-16 16-16s16 7.163 16 16z"></path>
<path style="fill: var(--color1, #fff)" d="M12.546 24.774c-0.196 0-0.354-0.159-0.354-0.355 0-0.893-0.002-1.788 0.002-2.681 0-0.102-0.034-0.161-0.129-0.194-0.182-0.065-0.362-0.137-0.547-0.195-1.099-0.347-1.856-1.068-2.387-2.038-0.29-0.532-0.465-1.103-0.6-1.688-0.218-0.947-0.293-1.907-0.267-2.877 0.018-0.626 0.070-1.249 0.167-1.868 0.075-0.488 0.144-0.979 0.257-1.461 0.265-1.125 0.898-2.023 1.852-2.708 0.585-0.42 1.235-0.714 1.924-0.933 0.562-0.18 1.14-0.297 1.725-0.386 0.834-0.127 1.673-0.186 2.515-0.159 0.514 0.018 1.031 0.054 1.544 0.103 0.729 0.070 1.452 0.184 2.161 0.367 0.68 0.175 1.327 0.426 1.922 0.795 1.034 0.639 1.676 1.55 1.991 2.691 0.198 0.718 0.329 1.45 0.396 2.19 0.072 0.793 0.074 1.586 0.025 2.381-0.030 0.471-0.067 0.939-0.151 1.403-0.162 0.904-0.437 1.771-0.913 2.568-0.359 0.601-0.872 1.057-1.491 1.402-0.541 0.3-1.124 0.493-1.729 0.625-0.478 0.105-0.962 0.167-1.45 0.205-1.099 0.083-2.199 0.116-3.302 0.145-0.036 0.002-0.084 0.016-0.106 0.041-0.662 0.702-1.37 1.362-2.069 2.028-0.197 0.188-0.395 0.375-0.596 0.559-0.023 0.022-0.062 0.037-0.095 0.037-0.097 0.001-0.195 0.002-0.293 0.002zM12.978 23.541c-0.002 0.029 0.035 0.046 0.054 0.025 0.234-0.223 0.472-0.44 0.703-0.668 0.424-0.416 0.846-0.836 1.263-1.26 0.188-0.191 0.415-0.288 0.682-0.297 0.78-0.030 1.56-0.054 2.338-0.084 0.641-0.026 1.28-0.070 1.912-0.178 0.616-0.105 1.211-0.27 1.766-0.555 0.619-0.316 1.101-0.768 1.416-1.376 0.37-0.717 0.605-1.477 0.728-2.27 0.095-0.618 0.131-1.241 0.144-1.864 0.020-0.855-0.033-1.707-0.182-2.551-0.082-0.462-0.182-0.92-0.333-1.365-0.246-0.728-0.673-1.332-1.313-1.79-0.511-0.366-1.081-0.615-1.686-0.795-0.506-0.149-1.024-0.246-1.545-0.324-0.539-0.079-1.080-0.141-1.622-0.173-0.773-0.046-1.547-0.038-2.319 0.043-0.601 0.062-1.196 0.153-1.781 0.3-0.716 0.18-1.394 0.442-2.017 0.834-0.909 0.574-1.503 1.368-1.734 2.398-0.107 0.474-0.175 0.957-0.251 1.437-0.090 0.586-0.139 1.176-0.154 1.767-0.020 0.718 0.023 1.434 0.146 2.143 0.087 0.497 0.203 0.989 0.38 1.464 0.208 0.555 0.5 1.060 0.937 1.478 0.306 0.292 0.649 0.531 1.063 0.664 0.247 0.079 0.49 0.176 0.734 0.27 0.179 0.068 0.344 0.159 0.469 0.307 0.151 0.178 0.2 0.386 0.2 0.612 0 0.602 0 1.203 0 1.806-0 0.001-0 0.002-0 0.002z"></path>
<path style="fill: var(--color1, #fff)" d="M19.013 19.814c-0.149-0.002-0.333-0.046-0.51-0.119-1.245-0.512-2.4-1.17-3.438-2.015-0.993-0.809-1.822-1.755-2.507-2.823-0.4-0.621-0.705-1.284-0.968-1.968-0.051-0.13-0.12-0.256-0.146-0.391-0.123-0.636 0.12-1.13 0.646-1.505 0.231-0.164 0.493-0.265 0.773-0.321 0.269-0.054 0.497 0.037 0.69 0.213 0.382 0.347 0.711 0.736 0.985 1.168 0.128 0.2 0.244 0.408 0.354 0.618 0.164 0.313 0.107 0.578-0.165 0.812-0.103 0.087-0.213 0.168-0.318 0.254-0.359 0.297-0.441 0.593-0.267 1.019 0.259 0.639 0.664 1.178 1.201 1.624 0.411 0.342 0.873 0.601 1.373 0.798 0.354 0.14 0.662 0.011 0.878-0.289 0.1-0.14 0.203-0.273 0.349-0.37 0.269-0.178 0.555-0.178 0.85-0.076 0.198 0.068 0.374 0.18 0.541 0.3 0.385 0.278 0.775 0.553 1.155 0.838 0.177 0.132 0.31 0.3 0.344 0.524 0.023 0.161-0.018 0.312-0.082 0.458-0.223 0.499-0.596 0.858-1.099 1.092-0.257 0.126-0.396 0.159-0.639 0.159z"></path>
<path style="fill: var(--color1, #fff)" d="M16.995 9.894c1.194 0.006 2.281 0.458 3.146 1.381 0.583 0.625 0.931 1.362 1.047 2.198 0.069 0.486 0.046 0.971-0.062 1.451-0.041 0.183-0.165 0.299-0.338 0.313-0.182 0.014-0.351-0.078-0.416-0.227-0.036-0.084-0.031-0.17-0.013-0.258 0.208-0.995 0.023-1.914-0.6-2.732-0.57-0.749-1.344-1.189-2.294-1.327-0.433-0.064-0.86-0.037-1.288 0.052-0.21 0.043-0.398-0.083-0.444-0.288-0.049-0.211 0.062-0.401 0.272-0.451 0.295-0.073 0.595-0.103 0.99-0.113z"></path>
<path style="fill: var(--color1, #fff)" d="M20.026 13.629c0.042 0.286 0.030 0.578-0.009 0.864-0.003 0.025-0.007 0.050-0.011 0.075-0.033 0.207-0.21 0.324-0.436 0.299-0.21-0.024-0.354-0.186-0.339-0.389 0.010-0.14 0.036-0.28 0.038-0.421 0.011-0.995-0.647-1.867-1.629-2.157-0.346-0.102-0.7-0.126-1.057-0.065-0.367 0.064-0.531-0.257-0.459-0.497 0.043-0.138 0.143-0.224 0.287-0.248 1.073-0.168 2.002 0.118 2.769 0.865 0.475 0.462 0.752 1.028 0.845 1.675z"></path>
<path style="fill: var(--color1, #fff)" d="M16.942 12.186c0.954 0.013 1.781 0.72 1.909 1.626 0.016 0.119 0.028 0.243 0.013 0.361-0.026 0.203-0.201 0.319-0.428 0.302-0.198-0.014-0.344-0.162-0.347-0.359-0.002-0.238-0.059-0.461-0.198-0.658-0.238-0.335-0.568-0.502-0.988-0.51-0.169-0.003-0.3-0.070-0.362-0.226-0.062-0.157-0.041-0.305 0.080-0.431 0.092-0.091 0.206-0.111 0.321-0.105z"></path>
</symbol>
<symbol id="icon-play" viewBox="0 0 32 32">
<path fill="none" style="stroke: var(--color1, #fff)" stroke-linejoin="miter" stroke-linecap="butt" stroke-miterlimit="4" stroke-width="1.0492" d="M31.475 16c0 8.547-6.929 15.475-15.475 15.475s-15.475-6.929-15.475-15.475c0-8.547 6.929-15.475 15.475-15.475s15.475 6.929 15.475 15.475z"></path>
<path  style="fill: var(--color1, #fff)" d="M20.078 16l-5.647 4.075v-8.151l5.647 4.075z"></path>
</symbol>
<symbol id="icon-close" viewBox="0 0 32 32">
<path d="M32 28.8l-3.2 3.2-12.8-12.8-12.8 12.8-3.2-3.2 12.8-12.8-12.8-12.8 3.2-3.2 12.8 12.8 12.8-12.8 3.2 3.2-12.8 12.8 12.8 12.8z"></path>
</symbol>
<symbol id="icon-youtube" viewBox="0 0 32 32">
<path d="M30.753 25.327c-1.155 1.373-3.288 1.933-7.361 1.933h-14.785c-4.166 0-6.335-0.596-7.486-2.058-1.122-1.425-1.122-3.526-1.122-6.432v-5.54c0-5.631 1.331-8.49 8.608-8.49h14.785c3.532 0 5.489 0.494 6.755 1.706 1.299 1.243 1.852 3.272 1.852 6.784v5.54c0 3.065-0.087 5.178-1.247 6.557zM20.544 15.235l-6.714-3.509c-0.15-0.078-0.314-0.117-0.478-0.117-0.186 0-0.371 0.050-0.535 0.149-0.309 0.187-0.497 0.522-0.497 0.883v6.995c0 0.361 0.188 0.695 0.496 0.882s0.692 0.2 1.012 0.034l6.714-3.486c0.342-0.177 0.556-0.53 0.557-0.915s-0.213-0.738-0.554-0.916z"></path>
</symbol>
<symbol id="icon-instagram" viewBox="0 0 32 32">
<path d="M23.354 0h-14.707c-4.768 0-8.646 3.879-8.646 8.646v14.707c0 4.768 3.879 8.646 8.646 8.646h14.707c4.768 0 8.646-3.879 8.646-8.646v-14.707c0-4.768-3.879-8.646-8.646-8.646zM29.415 23.354c0 3.342-2.719 6.061-6.061 6.061h-14.707c-3.342 0-6.061-2.719-6.061-6.061v-14.707c0-3.342 2.719-6.061 6.061-6.061h14.707c3.342 0 6.061 2.719 6.061 6.061v14.707z"></path>
<path d="M23.162 14.884c-0.227-1.534-0.927-2.925-2.024-4.021s-2.487-1.797-4.021-2.024c-0.698-0.104-1.407-0.104-2.105 0-1.896 0.281-3.569 1.284-4.711 2.823s-1.616 3.431-1.335 5.327c0.281 1.896 1.284 3.569 2.823 4.711 1.25 0.927 2.732 1.414 4.26 1.414 0.354 0 0.711-0.026 1.068-0.079 1.896-0.281 3.569-1.284 4.711-2.823s1.616-3.431 1.335-5.327zM16.737 20.477c-1.213 0.18-2.423-0.123-3.408-0.854s-1.626-1.801-1.806-3.014c-0.18-1.213 0.123-2.423 0.854-3.408s1.801-1.626 3.014-1.806c0.223-0.033 0.448-0.050 0.673-0.050s0.45 0.017 0.673 0.050c2.014 0.299 3.569 1.853 3.867 3.867 0.371 2.504-1.364 4.843-3.867 5.214z"></path>
<path d="M25.003 6.997c-0.241-0.241-0.574-0.379-0.914-0.379s-0.673 0.138-0.914 0.379c-0.241 0.241-0.379 0.573-0.379 0.914s0.138 0.673 0.379 0.914c0.241 0.241 0.574 0.379 0.914 0.379s0.674-0.138 0.914-0.379 0.379-0.574 0.379-0.914c0-0.34-0.138-0.673-0.379-0.914z"></path>
</symbol>
<symbol id="icon-facebook" viewBox="0 0 32 32">
<path d="M8.434 17.043h3.508v14.441c0 0.285 0.231 0.516 0.516 0.516h5.947c0.285 0 0.516-0.231 0.516-0.516v-14.373h4.032c0.262 0 0.483-0.197 0.513-0.457l0.612-5.316c0.017-0.146-0.030-0.293-0.128-0.402s-0.238-0.173-0.385-0.173h-4.645v-3.333c0-1.005 0.541-1.514 1.608-1.514 0.152 0 3.037 0 3.037 0 0.285 0 0.516-0.231 0.516-0.516v-4.88c0-0.285-0.231-0.516-0.516-0.516h-4.185c-0.030-0.001-0.095-0.004-0.192-0.004-0.726 0-3.25 0.143-5.244 1.977-2.209 2.033-1.902 4.467-1.829 4.889v3.897h-3.682c-0.285 0-0.516 0.231-0.516 0.516v5.248c0 0.285 0.231 0.516 0.516 0.516z"></path>
</symbol>
<symbol id="icon-entrance" viewBox="0 0 32 32">
<path fill="#93b474" style="fill: var(--color4, #93b474)" d="M16 15.65c3.558 0 6.442-3.503 6.442-7.825s-0.947-7.825-6.442-7.825-6.442 3.503-6.442 7.825c0 4.322 2.884 7.825 6.442 7.825z"></path>
<path fill="#93b474" style="fill: var(--color4, #93b474)" d="M3.832 27.596c-0.002-0.073-0.001-0.26 0 0v0z"></path>
<path fill="#93b474" style="fill: var(--color4, #93b474)" d="M28.168 27.804c0.001-0.501 0.003-0.072 0 0v0z"></path>
<path fill="#93b474" style="fill: var(--color4, #93b474)" d="M28.154 27.282c-0.119-7.529-1.103-9.674-8.627-11.032 0 0-1.059 1.35-3.528 1.35s-3.528-1.35-3.528-1.35c-7.442 1.343-8.485 3.456-8.622 10.787-0.011 0.599-0.016 0.63-0.018 0.561 0 0.13 0.001 0.371 0.001 0.791 0 0 1.791 3.611 12.167 3.611s12.167-3.611 12.167-3.611c0-0.27 0-0.457 0-0.585-0.002 0.043-0.006-0.040-0.014-0.522z"></path>
</symbol>
<symbol id="icon-burger" viewBox="0 0 32 32">
<path d="M32 6.063c-10.668 0-21.337 0-32 0 0-1.448 0-2.902 0-4.378 10.669 0 21.337 0 32 0 0 1.477 0 2.931 0 4.378z"></path>
<path d="M0 13.779c10.669 0 21.337 0 32 0 0 1.471 0 2.942 0 4.408-10.668 0-21.337 0-32 0 0-1.465 0-2.936 0-4.408z"></path>
<path d="M0 25.908c7.169 0 14.343 0 21.962 0-0.641 1.675-1.17 3.041-1.694 4.408-6.612 0-13.223 0-20.268 0 0-1.448 0-2.931 0-4.408z"></path>
</symbol>
<symbol id="icon-arrow-b" viewBox="0 0 32 32">
<path d="M15.979 20.582l-12.067-12.262-3.912 4.305 15.979 16.175 16.021-16.175-3.912-4.305-12.108 12.262z"></path>
</symbol>
<symbol id="icon-tel-mob" viewBox="0 0 32 32">
<path d="M31.936 24.794c-0.090-0.273-0.666-0.674-1.727-1.204-0.287-0.167-0.697-0.394-1.227-0.682s-1.012-0.553-1.443-0.796c-0.432-0.242-0.837-0.477-1.216-0.704-0.061-0.045-0.25-0.178-0.568-0.398s-0.587-0.382-0.807-0.489c-0.22-0.106-0.436-0.159-0.648-0.159-0.303 0-0.681 0.216-1.136 0.648s-0.871 0.901-1.25 1.409c-0.379 0.508-0.78 0.977-1.204 1.409s-0.773 0.648-1.046 0.648c-0.137 0-0.307-0.038-0.512-0.113s-0.36-0.141-0.466-0.193c-0.106-0.053-0.287-0.159-0.545-0.319s-0.402-0.246-0.432-0.261c-2.076-1.152-3.856-2.47-5.341-3.954s-2.803-3.265-3.954-5.341c-0.015-0.030-0.102-0.174-0.261-0.432s-0.265-0.439-0.318-0.546c-0.053-0.106-0.117-0.261-0.193-0.466s-0.114-0.375-0.114-0.511c0-0.273 0.216-0.621 0.648-1.045s0.902-0.826 1.409-1.204c0.508-0.379 0.977-0.795 1.409-1.25s0.648-0.833 0.648-1.136c0-0.212-0.053-0.428-0.159-0.648s-0.269-0.489-0.489-0.807c-0.22-0.318-0.352-0.507-0.398-0.568-0.227-0.379-0.462-0.784-0.704-1.216s-0.508-0.913-0.796-1.443c-0.288-0.53-0.515-0.939-0.682-1.227-0.53-1.060-0.931-1.636-1.204-1.727-0.106-0.045-0.265-0.068-0.477-0.068-0.409 0-0.943 0.076-1.602 0.227s-1.178 0.31-1.557 0.477c-0.758 0.318-1.561 1.242-2.409 2.772-0.773 1.424-1.159 2.833-1.159 4.227 0 0.409 0.026 0.806 0.080 1.193s0.148 0.822 0.284 1.307c0.136 0.485 0.246 0.845 0.329 1.079s0.238 0.655 0.466 1.261c0.227 0.606 0.364 0.977 0.409 1.113 0.53 1.485 1.159 2.811 1.886 3.977 1.196 1.939 2.829 3.943 4.897 6.012s4.072 3.701 6.011 4.898c1.167 0.727 2.493 1.356 3.977 1.886 0.136 0.045 0.507 0.181 1.113 0.409s1.027 0.383 1.261 0.466c0.235 0.083 0.595 0.193 1.079 0.33 0.485 0.137 0.921 0.231 1.307 0.285 0.387 0.052 0.784 0.079 1.193 0.079 1.394 0 2.803-0.386 4.227-1.159 1.53-0.848 2.454-1.651 2.772-2.409 0.167-0.378 0.326-0.897 0.477-1.557s0.228-1.193 0.228-1.602c0-0.213-0.022-0.372-0.068-0.479z"></path>
</symbol>
<symbol id="icon-bag" viewBox="0 0 32 32">
<path fill="#337d5a" style="fill: var(--color2, #337d5a)" d="M24.724 28.327l-1.503-18.602c-0.030-0.367-0.336-0.65-0.704-0.65h-4.036v-0.895c0-2.935-2.357-5.324-5.292-5.324h-0.093c-2.935 0-5.355 2.388-5.355 5.324v0.895h-3.973c-0.368 0-0.675 0.283-0.704 0.65l-1.507 18.654c-0.016 0.197 0.051 0.391 0.185 0.536s0.322 0.228 0.519 0.228h21.763c0.001 0 0.001 0 0.002 0 0.39 0 0.707-0.316 0.707-0.707 0-0.037-0.003-0.074-0.008-0.109zM9.154 8.181c0-2.156 1.786-3.91 3.942-3.91h0.093c2.156 0 3.879 1.754 3.879 3.91v0.895h-7.914v-0.895z"></path>
<path fill="#93b474" style="fill: var(--color4, #93b474)" d="M31.762 11.071c0 4.537-3.678 8.214-8.214 8.214s-8.214-3.678-8.214-8.214c0-4.537 3.678-8.214 8.214-8.214s8.214 3.678 8.214 8.214z"></path>
</symbol>
</defs>
</svg>
